<svg xmlns="http://www.w3.org/2000/svg" viewBox="0 0 400 400" width="400" height="400">
  <defs>
    <linearGradient id="grad1" x1="0%" y1="0%" x2="100%" y2="100%">
      <stop offset="0%" style="stop-color:#8B5CF6;stop-opacity:1" />
      <stop offset="100%" style="stop-color:#4F46E5;stop-opacity:1" />
    </linearGradient>
    <linearGradient id="grad2" x1="0%" y1="100%" x2="100%" y2="0%">
      <stop offset="0%" style="stop-color:#1E293B;stop-opacity:1" />
      <stop offset="100%" style="stop-color:#0F172A;stop-opacity:1" />
    </linearGradient>
  </defs>

  <!-- Outer Circle -->
  <path d="M 50 200 A 150 150 0 1 1 350 200" fill="none" stroke="url(#grad1)" stroke-width="15" stroke-linecap="round"/>
  <path d="M 50 200 A 150 150 0 0 0 200 350" fill="none" stroke="url(#grad2)" stroke-width="15" stroke-linecap="round"/>

  <!-- R-IP Text -->
  <text x="200" y="210" font-family="Arial, sans-serif" font-weight="900" font-size="110" font-style="italic" fill="url(#grad2)" text-anchor="middle" letter-spacing="-5">R-IP</text>

  <!-- Tie Icon -->
  <path d="M 185 240 L 215 240 L 205 270 L 215 340 L 200 360 L 185 340 L 195 270 Z" fill="url(#grad1)"/>

  <!-- Stars -->
  <path d="M 320 80 Q 325 95 340 100 Q 325 105 320 120 Q 315 105 300 100 Q 315 95 320 80 Z" fill="#4F46E5"/>
  <path d="M 280 60 Q 283 70 295 75 Q 283 80 280 90 Q 277 80 265 75 Q 277 70 280 60 Z" fill="#8B5CF6"/>
</svg>
